<svg xmlns="http://www.w3.org/2000/svg" viewBox="0 0 100 100" fill="none">
  <defs>
    <linearGradient id="grad1" x1="0%" y1="0%" x2="100%" y2="100%">
      <stop offset="0%" style="stop-color:#8B5CF6;stop-opacity:1" />
      <stop offset="100%" style="stop-color:#EC4899;stop-opacity:1" />
    </linearGradient>
  </defs>
  
  <!-- Main clapperboard body -->
  <rect x="15" y="25" width="70" height="55" rx="4" fill="#1F2937" stroke="url(#grad1)" stroke-width="2"/>
  
  <!-- Top clapper -->
  <rect x="15" y="15" width="70" height="15" rx="2" fill="url(#grad1)"/>
  
  <!-- Diagonal stripes on clapper -->
  <rect x="20" y="15" width="8" height="15" fill="#000" opacity="0.3"/>
  <rect x="32" y="15" width="8" height="15" fill="#000" opacity="0.3"/>
  <rect x="44" y="15" width="8" height="15" fill="#000" opacity="0.3"/>
  <rect x="56" y="15" width="8" height="15" fill="#000" opacity="0.3"/>
  <rect x="68" y="15" width="8" height="15" fill="#000" opacity="0.3"/>
  
  <!-- Film holes -->
  <circle cx="25" cy="35" r="2" fill="url(#grad1)"/>
  <circle cx="75" cy="35" r="2" fill="url(#grad1)"/>
  <circle cx="25" cy="45" r="2" fill="url(#grad1)"/>
  <circle cx="75" cy="45" r="2" fill="url(#grad1)"/>
  <circle cx="25" cy="55" r="2" fill="url(#grad1)"/>
  <circle cx="75" cy="55" r="2" fill="url(#grad1)"/>
  <circle cx="25" cy="65" r="2" fill="url(#grad1)"/>
  <circle cx="75" cy="65" r="2" fill="url(#grad1)"/>
  
  <!-- Center screen area -->
  <rect x="35" y="35" width="30" height="30" rx="2" fill="#374151"/>
  <rect x="37" y="37" width="26" height="26" rx="1" fill="#111827"/>
  
  <!-- Play button in center -->
  <polygon points="45,45 45,55 55,50" fill="url(#grad1)"/>
</svg>
